<svg width="285" height="61" viewBox="0 0 285 61" fill="none" xmlns="http://www.w3.org/2000/svg">
<g clip-path="url(#clip0_2_2)">
<rect width="285" height="61" fill="rgb(29, 29, 29)"/>
<g filter="url(#filter0_d_2_2)">
<path d="M5.63636 53V6.45454H21.3636C25.0152 6.45454 28 7.11363 30.3182 8.43182C32.6515 9.73485 34.3788 11.5 35.5 13.7273C36.6212 15.9545 37.1818 18.4394 37.1818 21.1818C37.1818 23.9242 36.6212 26.4167 35.5 28.6591C34.3939 30.9015 32.6818 32.6894 30.3636 34.0227C28.0455 35.3409 25.0758 36 21.4545 36H10.1818V31H21.2727C23.7727 31 25.7803 30.5682 27.2955 29.7045C28.8106 28.8409 29.9091 27.6742 30.5909 26.2045C31.2879 24.7197 31.6364 23.0455 31.6364 21.1818C31.6364 19.3182 31.2879 17.6515 30.5909 16.1818C29.9091 14.7121 28.803 13.5606 27.2727 12.7273C25.7424 11.8788 23.7121 11.4545 21.1818 11.4545H11.2727V53H5.63636Z" fill="#F5F5F5"/>
</g>
<g filter="url(#filter1_d_2_2)">
<path d="M70 26.6756C70 41.035 70 52.6756 70 52.6756C84.3594 52.6756 96 41.035 96 26.6756C96 12.3162 84.3594 0.675568 70 0.675568C70 0.675568 70 12.3162 70 26.6756Z" fill="#B655E4"/>
<path d="M70 26.6756C70 41.035 70 52.6756 70 52.6756C84.3594 52.6756 96 41.035 96 26.6756C96 12.3162 84.3594 0.675568 70 0.675568C70 0.675568 70 12.3162 70 26.6756Z" fill="#B655E4"/>
<path d="M70 26.6756C70 41.035 70 52.6756 70 52.6756C84.3594 52.6756 96 41.035 96 26.6756C96 12.3162 84.3594 0.675568 70 0.675568C70 0.675568 70 12.3162 70 26.6756Z" stroke="black" stroke-linejoin="bevel"/>
<path d="M70 26.6756C70 41.035 70 52.6756 70 52.6756C84.3594 52.6756 96 41.035 96 26.6756C96 12.3162 84.3594 0.675568 70 0.675568C70 0.675568 70 12.3162 70 26.6756Z" stroke="black" stroke-linejoin="bevel"/>
<path d="M95 25.5017C95.0185 30.3389 95.0242 32.9813 95.0239 34.366L92.4756 33.4125L70.4016 25.1526C70.367 15.9063 70.3794 11.356 70.3913 6.97482C70.3968 4.96082 70.4021 2.98256 70.4028 0.600282C83.981 0.81375 94.948 11.8611 95 25.5017Z" fill="#EAE22C" stroke="black"/>
<path d="M70 26.6756C70 41.035 70 52.6756 70 52.6756C55.6406 52.6756 44 41.035 44 26.6756C44 12.3162 55.6406 0.675568 70 0.675568C70 0.675568 70 12.3162 70 26.6756Z" fill="#F26060"/>
<path d="M70 26.6756C70 41.035 70 52.6756 70 52.6756C55.6406 52.6756 44 41.035 44 26.6756C44 12.3162 55.6406 0.675568 70 0.675568C70 0.675568 70 12.3162 70 26.6756Z" fill="#F26060"/>
<path d="M70 26.6756C70 41.035 70 52.6756 70 52.6756C55.6406 52.6756 44 41.035 44 26.6756C44 12.3162 55.6406 0.675568 70 0.675568C70 0.675568 70 12.3162 70 26.6756Z" stroke="black" stroke-linejoin="bevel"/>
<path d="M70 26.6756C70 41.035 70 52.6756 70 52.6756C55.6406 52.6756 44 41.035 44 26.6756C44 12.3162 55.6406 0.675568 70 0.675568C70 0.675568 70 12.3162 70 26.6756Z" stroke="black" stroke-linejoin="bevel"/>
</g>
<g filter="url(#filter2_d_2_2)">
<rect x="128" y="18" width="15" height="33" fill="#26CAD5"/>
<rect x="107" y="4" width="15" height="47" fill="#45D064"/>
<line x1="101" y1="50.5" x2="153" y2="50.5" stroke="#F0F0F0" stroke-width="5"/>
</g>
<g filter="url(#filter3_d_2_2)">
<path d="M157.909 53V18.0909H163.273V53H157.909ZM160.636 12.2727C159.591 12.2727 158.689 11.9167 157.932 11.2045C157.189 10.4924 156.818 9.63636 156.818 8.63636C156.818 7.63636 157.189 6.7803 157.932 6.06818C158.689 5.35606 159.591 5 160.636 5C161.682 5 162.576 5.35606 163.318 6.06818C164.076 6.7803 164.455 7.63636 164.455 8.63636C164.455 9.63636 164.076 10.4924 163.318 11.2045C162.576 11.9167 161.682 12.2727 160.636 12.2727ZM188.278 18.0909V22.6364H170.188V18.0909H188.278ZM175.46 9.72727H180.824V43C180.824 44.5152 181.044 45.6515 181.483 46.4091C181.938 47.1515 182.513 47.6515 183.21 47.9091C183.922 48.1515 184.672 48.2727 185.46 48.2727C186.051 48.2727 186.536 48.2424 186.915 48.1818C187.294 48.1061 187.597 48.0455 187.824 48L188.915 52.8182C188.551 52.9545 188.044 53.0909 187.392 53.2273C186.741 53.3788 185.915 53.4545 184.915 53.4545C183.4 53.4545 181.915 53.1288 180.46 52.4773C179.021 51.8258 177.824 50.8333 176.869 49.5C175.93 48.1667 175.46 46.4848 175.46 44.4545V9.72727ZM196.347 53V18.0909H201.71V53H196.347ZM199.074 12.2727C198.028 12.2727 197.127 11.9167 196.369 11.2045C195.627 10.4924 195.256 9.63636 195.256 8.63636C195.256 7.63636 195.627 6.7803 196.369 6.06818C197.127 5.35606 198.028 5 199.074 5C200.119 5 201.013 5.35606 201.756 6.06818C202.513 6.7803 202.892 7.63636 202.892 8.63636C202.892 9.63636 202.513 10.4924 201.756 11.2045C201.013 11.9167 200.119 12.2727 199.074 12.2727ZM225.716 53.7273C222.443 53.7273 219.625 52.9545 217.261 51.4091C214.898 49.8636 213.08 47.7348 211.807 45.0227C210.534 42.3106 209.898 39.2121 209.898 35.7273C209.898 32.1818 210.549 29.053 211.852 26.3409C213.17 23.6136 215.004 21.4848 217.352 19.9545C219.716 18.4091 222.473 17.6364 225.625 17.6364C228.08 17.6364 230.292 18.0909 232.261 19C234.231 19.9091 235.845 21.1818 237.102 22.8182C238.36 24.4545 239.14 26.3636 239.443 28.5455H234.08C233.67 26.9545 232.761 25.5455 231.352 24.3182C229.958 23.0758 228.08 22.4545 225.716 22.4545C223.625 22.4545 221.792 23 220.216 24.0909C218.655 25.1667 217.436 26.6894 216.557 28.6591C215.693 30.6136 215.261 32.9091 215.261 35.5455C215.261 38.2424 215.686 40.5909 216.534 42.5909C217.398 44.5909 218.61 46.1439 220.17 47.25C221.746 48.3561 223.595 48.9091 225.716 48.9091C227.11 48.9091 228.375 48.6667 229.511 48.1818C230.648 47.697 231.61 47 232.398 46.0909C233.186 45.1818 233.746 44.0909 234.08 42.8182H239.443C239.14 44.8788 238.39 46.7348 237.193 48.3864C236.011 50.0227 234.443 51.3258 232.489 52.2955C230.549 53.25 228.292 53.7273 225.716 53.7273ZM272.011 25.9091L267.193 27.2727C266.89 26.4697 266.443 25.6894 265.852 24.9318C265.277 24.1591 264.489 23.5227 263.489 23.0227C262.489 22.5227 261.208 22.2727 259.648 22.2727C257.511 22.2727 255.731 22.7652 254.307 23.75C252.898 24.7197 252.193 25.9545 252.193 27.4545C252.193 28.7879 252.678 29.8409 253.648 30.6136C254.617 31.3864 256.133 32.0303 258.193 32.5455L263.375 33.8182C266.496 34.5758 268.822 35.7348 270.352 37.2955C271.883 38.8409 272.648 40.8333 272.648 43.2727C272.648 45.2727 272.072 47.0606 270.92 48.6364C269.784 50.2121 268.193 51.4545 266.148 52.3636C264.102 53.2727 261.723 53.7273 259.011 53.7273C255.451 53.7273 252.504 52.9545 250.17 51.4091C247.837 49.8636 246.36 47.6061 245.739 44.6364L250.83 43.3636C251.314 45.2424 252.231 46.6515 253.58 47.5909C254.943 48.5303 256.723 49 258.92 49C261.42 49 263.405 48.4697 264.875 47.4091C266.36 46.3333 267.102 45.0455 267.102 43.5455C267.102 42.3333 266.678 41.3182 265.83 40.5C264.981 39.6667 263.678 39.0455 261.92 38.6364L256.102 37.2727C252.905 36.5152 250.557 35.3409 249.057 33.75C247.572 32.1439 246.83 30.1364 246.83 27.7273C246.83 25.7576 247.383 24.0152 248.489 22.5C249.61 20.9848 251.133 19.7955 253.057 18.9318C254.996 18.0682 257.193 17.6364 259.648 17.6364C263.102 17.6364 265.814 18.3939 267.784 19.9091C269.769 21.4242 271.178 23.4242 272.011 25.9091Z" fill="#F5F5F5"/>
</g>
</g>
<defs>
<filter id="filter0_d_2_2" x="1.63637" y="6.45454" width="39.5455" height="54.5455" filterUnits="userSpaceOnUse" color-interpolation-filters="sRGB">
<feFlood flood-opacity="0" result="BackgroundImageFix"/>
<feColorMatrix in="SourceAlpha" type="matrix" values="0 0 0 0 0 0 0 0 0 0 0 0 0 0 0 0 0 0 127 0" result="hardAlpha"/>
<feOffset dy="4"/>
<feGaussianBlur stdDeviation="2"/>
<feComposite in2="hardAlpha" operator="out"/>
<feColorMatrix type="matrix" values="0 0 0 0 0 0 0 0 0 0 0 0 0 0 0 0 0 0 0.25 0"/>
<feBlend mode="normal" in2="BackgroundImageFix" result="effect1_dropShadow_2_2"/>
<feBlend mode="normal" in="SourceGraphic" in2="effect1_dropShadow_2_2" result="shape"/>
</filter>
<filter id="filter1_d_2_2" x="39.5" y="0.0971375" width="61" height="61.0784" filterUnits="userSpaceOnUse" color-interpolation-filters="sRGB">
<feFlood flood-opacity="0" result="BackgroundImageFix"/>
<feColorMatrix in="SourceAlpha" type="matrix" values="0 0 0 0 0 0 0 0 0 0 0 0 0 0 0 0 0 0 127 0" result="hardAlpha"/>
<feOffset dy="4"/>
<feGaussianBlur stdDeviation="2"/>
<feComposite in2="hardAlpha" operator="out"/>
<feColorMatrix type="matrix" values="0 0 0 0 0 0 0 0 0 0 0 0 0 0 0 0 0 0 0.25 0"/>
<feBlend mode="normal" in2="BackgroundImageFix" result="effect1_dropShadow_2_2"/>
<feBlend mode="normal" in="SourceGraphic" in2="effect1_dropShadow_2_2" result="shape"/>
</filter>
<filter id="filter2_d_2_2" x="97" y="4" width="60" height="57" filterUnits="userSpaceOnUse" color-interpolation-filters="sRGB">
<feFlood flood-opacity="0" result="BackgroundImageFix"/>
<feColorMatrix in="SourceAlpha" type="matrix" values="0 0 0 0 0 0 0 0 0 0 0 0 0 0 0 0 0 0 127 0" result="hardAlpha"/>
<feOffset dy="4"/>
<feGaussianBlur stdDeviation="2"/>
<feComposite in2="hardAlpha" operator="out"/>
<feColorMatrix type="matrix" values="0 0 0 0 0 0 0 0 0 0 0 0 0 0 0 0 0 0 0.25 0"/>
<feBlend mode="normal" in2="BackgroundImageFix" result="effect1_dropShadow_2_2"/>
<feBlend mode="normal" in="SourceGraphic" in2="effect1_dropShadow_2_2" result="shape"/>
</filter>
<filter id="filter3_d_2_2" x="152.818" y="5" width="123.83" height="56.7273" filterUnits="userSpaceOnUse" color-interpolation-filters="sRGB">
<feFlood flood-opacity="0" result="BackgroundImageFix"/>
<feColorMatrix in="SourceAlpha" type="matrix" values="0 0 0 0 0 0 0 0 0 0 0 0 0 0 0 0 0 0 127 0" result="hardAlpha"/>
<feOffset dy="4"/>
<feGaussianBlur stdDeviation="2"/>
<feComposite in2="hardAlpha" operator="out"/>
<feColorMatrix type="matrix" values="0 0 0 0 0 0 0 0 0 0 0 0 0 0 0 0 0 0 0.25 0"/>
<feBlend mode="normal" in2="BackgroundImageFix" result="effect1_dropShadow_2_2"/>
<feBlend mode="normal" in="SourceGraphic" in2="effect1_dropShadow_2_2" result="shape"/>
</filter>
<clipPath id="clip0_2_2">
<rect width="285" height="61" fill="white"/>
</clipPath>
</defs>
</svg>
